<?xml version="1.0" encoding="utf-8"?>
<!-- Generator: Adobe Illustrator 15.0.0, SVG Export Plug-In . SVG Version: 6.00 Build 0)  -->
<!DOCTYPE svg PUBLIC "-//W3C//DTD SVG 1.1//EN" "http://www.w3.org/Graphics/SVG/1.1/DTD/svg11.dtd">
<svg version="1.1" id="Layer_1" xmlns="http://www.w3.org/2000/svg" xmlns:xlink="http://www.w3.org/1999/xlink" x="0px" y="0px"
	 width="587.917px" height="137.417px" viewBox="13.458 328.425 587.917 137.417"
	 enable-background="new 13.458 328.425 587.917 137.417" xml:space="preserve">
<g>
	<path fill="#FFFFFF" d="M34.425,422.208v3.4c0,16.149,7.083,24.225,21.675,24.225c13.316,0,19.975-9.491,19.975-19.267
		c0-13.883-7.083-19.975-18.842-23.517l-14.45-4.958c-19.267-7.367-27.625-17.425-27.625-36.267c0-24.083,16.292-37.4,41.083-37.4
		c33.858,0,37.4,21.108,37.4,34.85v2.975H72.675v-2.833c0-12.042-5.383-19.125-18.558-19.125c-9.067,0-17.708,4.958-17.708,19.125
		c0,11.333,5.809,17,19.833,22.383l14.308,5.242c18.7,6.659,26.917,16.859,26.917,34.992c0,28.191-17,39.809-43.775,39.809
		c-32.725,0-40.233-21.816-40.233-40.375v-3.117h20.966V422.208z"/>
	<path fill="#FFFFFF" d="M110.642,330.833h21.108v57.658h0.425l39.95-57.658h23.092l-38.108,55.675l42.217,76.5h-23.942
		l-32.017-59.5l-11.617,16.857v42.784h-21.108V330.833z"/>
	<path fill="#FFFFFF" d="M224.542,411.441l-34-80.608h23.375l22.242,57.091l22.809-57.091h22.1l-35.417,80.608v51.709h-21.108
		V411.441L224.542,411.441z"/>
	<path fill="#FFFFFF" d="M353.741,330.833H380.8l34.851,132.175H393.55l-8.217-32.442h-38.675l-8.5,32.442h-22.1L353.741,330.833z
		 M381.934,413.85l-15.158-65.166h-0.426l-15.725,65.166H381.934z"/>
	<path fill="#FFFFFF" d="M425,330.833h41.792c25.358,0,36.55,15.867,36.55,38.533c0,23.658-13.884,39.1-38.675,39.1h-18.559v54.684
		H425V330.833z M446.108,392.458h15.017c11.333,0,21.108-6.092,21.108-22.809c0-14.308-5.809-22.95-22.525-22.95H446.25v45.758
		H446.108z"/>
	<path fill="#FFFFFF" d="M516.658,330.833h21.108v132.175h-21.108V330.833z"/>
	<path fill="#FFFFFF" d="M556.892,334.517h-7.225v-3.967h19.55v3.967h-7.226v20.258h-5.1V334.517L556.892,334.517z M596.559,335.65
		L596.559,335.65l-7.226,19.267h-3.258l-7.084-19.267h-0.142v19.267h-4.675V330.55h6.941l6.659,17.142l6.658-17.142h6.941v24.225
		H596.7V335.65H596.559z"/>
</g>
</svg>
